# xmcd
#
# Track frame offsets: 
#        150
#        13545
#        24668
#        35744
#        46294
#        57332
#        70605
#        82783
#        94805
#        106871
#        117312
#
# Disc length: 1737 seconds
#
# Revision: 2
# Processed by: cddbd v1.5.2PL0 Copyright (c) Steve Scherf et al.
# Submitted via: ExactAudioCopyFreeDBPlugin 1.0
#
DISCID=8306c70b
DTITLE=Tanya Tucker - Delta Dawn
DYEAR=1972
DGENRE=Country
TTITLE0=Delta Dawn
TTITLE1=New York City Song
TTITLE2=Smell the Flowers
TTITLE3=If You Touch Me
TTITLE4=He's All I Got
TTITLE5=The Jamestown Ferry
TTITLE6=Loving You Could Never Be Better
TTITLE7=Soul Song
TTITLE8=Love's The Answer
TTITLE9=The Happiest Girl In The Whole U.S.A.
TTITLE10=I'm So Lonesome I Could Cry
EXTD=
EXTT0=
EXTT1=
EXTT2=
EXTT3=
EXTT4=
EXTT5=
EXTT6=
EXTT7=
EXTT8=
EXTT9=
EXTT10=
PLAYORDER=
